<svg viewBox="0 0 140 140" xmlns="http://www.w3.org/2000/svg">
  <ellipse cx="70" cy="90" rx="45" ry="38" fill="#fff6fc" stroke="#d5b6f6" stroke-width="3"/>
  <ellipse cx="70" cy="65" rx="37" ry="34" fill="#fff2fe" stroke="#fcdff6" stroke-width="2"/>
  <ellipse cx="70" cy="72" rx="25" ry="20" fill="#fffbfe" stroke="#d5b6f6" stroke-width="2"/>
  <ellipse cx="60" cy="80" rx="5" ry="3" fill="#ffb7eb"/>
  <ellipse cx="80" cy="80" rx="5" ry="3" fill="#ffb7eb"/>
  <ellipse cx="63" cy="74" rx="3" ry="4" fill="#7c44fa"/>
  <ellipse cx="77" cy="74" rx="3" ry="4" fill="#7c44fa"/>
  <rect x="67" y="47" width="6" height="22" rx="3" fill="#ffeaf6" stroke="#ffb7eb" stroke-width="2"/>
  <rect x="68.5" y="47" width="3" height="22" rx="1.5" fill="#ffb7eb"/>
  <path d="M58 56 Q55 68 62 65 Q65 60 58 56" fill="#ffb7eb"/>
  <path d="M82 56 Q85 68 78 65 Q75 60 82 56" fill="#84f3ff"/>
  <path d="M65 82 Q70 86 75 82" stroke="#ff6cbe" stroke-width="2" fill="none"/>
  <g>
    <circle cx="40" cy="55" r="2" fill="#ffb7eb"/>
    <circle cx="100" cy="55" r="2" fill="#84f3ff"/>
    <circle cx="55" cy="105" r="1.5" fill="#ffb7eb"/>
    <circle cx="85" cy="105" r="1.5" fill="#84f3ff"/>
  </g>
</svg>
